<svg width="720" height="232" viewBox="0 0 720 232" fill="none" xmlns="http://www.w3.org/2000/svg">
<rect width="177.984" height="55.1968" rx="27.5984" transform="matrix(0.897476 -0.441063 0.374072 0.9274 0 180.733)" fill="#0172B2"/>
<path d="M155.56 165.655C168.366 159.361 174.125 142.8 168.423 128.665C162.722 114.529 147.718 108.172 134.912 114.465L67.6841 147.524C106.039 154.996 107.571 179.87 103.543 191.218L155.56 165.655Z" fill="url(#paint0_linear)"/>
<path d="M136.886 113.473L84.8884 139.027C98.624 149.166 127.192 148.772 105.492 190.238L157.534 164.662C170.722 157.836 176.099 141.808 170.397 127.672C163.963 113.473 149.692 107.179 136.886 113.473Z" fill="#0097E6"/>
<path d="M170.397 150.667C176.099 136.531 170.339 119.97 157.533 113.676L44.1716 57.9649C33.4756 52.7084 23.3157 57.3672 15.2077 66.3709C11.9306 70.0101 9.44335 74.4162 8.7594 79.2655C7.0394 91.4603 12.8202 103.894 23.5241 109.154L136.886 164.866C149.692 171.159 164.28 162.668 170.397 150.667Z" fill="#0097E6"/>
<path d="M23.523 109.154C10.7169 102.861 4.95754 86.2997 10.6592 72.1642C17.7162 59.5912 31.3644 51.6714 44.1706 57.9649L111.398 91.0239C73.0435 98.495 71.511 123.37 75.5392 134.718L23.523 109.154Z" fill="url(#paint1_linear)"/>
<path d="M44.173 57.9371L96.1706 83.4912C82.435 93.6304 53.8674 93.2365 75.5672 134.702L23.5255 109.127C10.7193 102.833 4.95998 86.2719 10.6616 72.1363C17.7166 59.5912 31.3668 51.6435 44.173 57.9371Z" fill="#66C1F0"/>
<path d="M10.6621 95.1308C4.96044 80.9952 10.7198 64.4341 23.5259 58.1405L136.887 2.42917C149.694 -3.86439 164.697 2.49282 170.399 16.6284C176.1 30.764 170.341 47.3251 157.535 53.6186L44.1735 109.33C31.3673 115.624 16.3638 109.266 10.6621 95.1308Z" fill="#66C1F0"/>
<path d="M311.4 110.736C311.4 106.08 310.753 102.07 309.46 98.7075C308.166 95.2584 306.356 92.456 304.027 90.3003C301.786 88.0584 299.069 86.42 295.879 85.3853C292.775 84.2643 289.369 83.7039 285.661 83.7039C283.678 83.7039 281.867 83.7901 280.229 83.9625C278.677 84.0488 277.168 84.1781 275.702 84.3506V137.51C277.168 137.855 278.806 138.114 280.617 138.286C282.514 138.372 284.368 138.415 286.178 138.415C294.198 138.415 300.406 136.087 304.804 131.431C309.201 126.775 311.4 119.876 311.4 110.736ZM328.602 110.607C328.602 117.591 327.568 123.714 325.498 128.973C323.515 134.147 320.669 138.458 316.962 141.908C313.254 145.27 308.77 147.814 303.51 149.539C298.336 151.263 292.559 152.126 286.178 152.126C284.712 152.126 283.117 152.082 281.393 151.996C279.668 151.996 277.857 151.867 275.96 151.608C274.15 151.436 272.296 151.177 270.399 150.832C268.588 150.487 266.863 150.013 265.225 149.409C261.086 147.857 259.017 145.27 259.017 141.649V78.2715C259.017 76.7194 259.448 75.5122 260.31 74.6499C261.172 73.7877 262.379 73.0978 263.932 72.5805C267.122 71.4595 270.571 70.7697 274.279 70.511C278.073 70.1661 281.651 69.9936 285.014 69.9936C291.481 69.9936 297.388 70.8559 302.734 72.5805C308.166 74.2188 312.78 76.7194 316.574 80.0823C320.368 83.4452 323.299 87.6703 325.369 92.7578C327.525 97.8452 328.602 103.795 328.602 110.607Z" fill="#1E1E1C"/>
<path d="M402.994 119.661C402.994 124.662 402.218 129.189 400.666 133.242C399.2 137.208 397.087 140.614 394.328 143.46C391.569 146.305 388.249 148.504 384.369 150.056C380.489 151.522 376.134 152.255 371.305 152.255C366.477 152.255 362.122 151.522 358.242 150.056C354.362 148.504 351.042 146.348 348.283 143.589C345.523 140.743 343.368 137.337 341.815 133.371C340.35 129.318 339.617 124.748 339.617 119.661C339.617 114.66 340.35 110.176 341.815 106.209C343.368 102.157 345.523 98.7506 348.283 95.9913C351.128 93.1458 354.491 90.9901 358.371 89.5242C362.251 87.9721 366.563 87.1961 371.305 87.1961C376.048 87.1961 380.359 87.9721 384.239 89.5242C388.12 90.9901 391.439 93.1458 394.199 95.9913C397.044 98.8368 399.2 102.286 400.666 106.339C402.218 110.305 402.994 114.746 402.994 119.661ZM371.305 100.13C366.649 100.13 362.984 101.855 360.311 105.304C357.638 108.667 356.302 113.452 356.302 119.661C356.302 125.955 357.595 130.784 360.182 134.147C362.855 137.51 366.563 139.191 371.305 139.191C376.048 139.191 379.713 137.51 382.299 134.147C384.972 130.698 386.309 125.869 386.309 119.661C386.309 113.452 384.972 108.667 382.299 105.304C379.626 101.855 375.962 100.13 371.305 100.13Z" fill="#1E1E1C"/>
<path d="M445.458 152.126C442.958 152.126 440.63 151.867 438.474 151.349C436.405 150.918 434.508 150.358 432.783 149.668V173.467C432.007 173.639 430.972 173.855 429.679 174.114C428.385 174.372 426.919 174.502 425.281 174.502C422.263 174.502 420.021 173.941 418.555 172.82C417.09 171.699 416.357 169.716 416.357 166.87V101.294C416.357 99.2248 416.745 97.5434 417.521 96.25C418.383 94.9566 419.719 93.7494 421.53 92.6284C424.031 91.1626 427.135 89.9122 430.843 88.8775C434.551 87.7566 438.733 87.1961 443.389 87.1961C448.132 87.1961 452.486 87.8428 456.452 89.1362C460.505 90.3434 463.997 92.2835 466.929 94.9566C469.861 97.5434 472.146 100.863 473.784 104.916C475.423 108.969 476.242 113.797 476.242 119.402C476.242 124.834 475.466 129.577 473.914 133.63C472.362 137.682 470.206 141.088 467.447 143.848C464.773 146.607 461.54 148.676 457.746 150.056C454.038 151.436 449.942 152.126 445.458 152.126ZM443.001 139.062C448.175 139.062 452.227 137.467 455.159 134.276C458.091 131.086 459.557 126.128 459.557 119.402C459.557 112.418 458.048 107.46 455.03 104.528C452.012 101.596 448.132 100.13 443.389 100.13C441.061 100.13 438.991 100.432 437.181 101.036C435.456 101.639 433.947 102.286 432.654 102.976V136.217C434.033 137.079 435.542 137.769 437.181 138.286C438.905 138.803 440.845 139.062 443.001 139.062Z" fill="#1E1E1C"/>
<path d="M506.819 150.185C506.129 150.358 505.094 150.573 503.715 150.832C502.421 151.091 500.999 151.22 499.446 151.22C496.342 151.22 494.057 150.66 492.591 149.539C491.212 148.418 490.522 146.435 490.522 143.589V66.2427C491.212 65.9841 492.203 65.7685 493.497 65.596C494.876 65.3373 496.342 65.208 497.894 65.208C500.999 65.208 503.24 65.7685 504.62 66.8894C506.086 68.0104 506.819 69.9936 506.819 72.8392V150.185Z" fill="#1E1E1C"/>
<path d="M564.586 110.866C564.586 107.158 563.508 104.442 561.353 102.717C559.283 100.993 556.438 100.13 552.816 100.13C550.315 100.13 547.987 100.432 545.832 101.036C543.762 101.639 541.951 102.415 540.399 103.364V150.185C539.623 150.358 538.588 150.573 537.295 150.832C536.002 151.091 534.536 151.22 532.897 151.22C529.879 151.22 527.638 150.66 526.172 149.539C524.706 148.418 523.973 146.435 523.973 143.589V102.07C523.973 100.001 524.404 98.3195 525.266 97.026C526.129 95.7326 527.465 94.4823 529.276 93.2751C531.776 91.5506 535.096 90.1278 539.235 89.0069C543.374 87.7997 547.944 87.1961 552.945 87.1961C561.827 87.1961 568.682 89.1793 573.511 93.1458C578.426 97.026 580.883 102.76 580.883 110.348V150.185C580.193 150.358 579.159 150.573 577.779 150.832C576.486 151.091 575.063 151.22 573.511 151.22C570.406 151.22 568.121 150.66 566.656 149.539C565.276 148.418 564.586 146.435 564.586 143.589V110.866ZM551.781 69.9936L563.422 58.3529C565.923 58.4391 567.906 59.0858 569.372 60.293C570.924 61.5002 571.7 63.0523 571.7 64.9493C571.7 66.329 571.269 67.5362 570.406 68.5709C569.63 69.5194 568.466 70.7266 566.914 72.1925L560.059 78.6595C557.559 80.9015 554.885 82.0224 552.04 82.0224C550.229 82.0224 548.591 81.7206 547.125 81.117C545.745 80.4272 543.978 79.0476 541.822 76.9781L531.604 66.8894C531.518 66.5445 531.475 66.1565 531.475 65.7254C531.475 64.0008 531.992 62.4056 533.027 60.9397C534.061 59.3876 535.657 58.6116 537.812 58.6116C539.192 58.6116 540.399 58.9134 541.434 59.517C542.555 60.1206 543.978 61.3709 545.702 63.2679L551.781 69.9936Z" fill="#1E1E1C"/>
<path d="M614.044 150.185C613.268 150.358 612.233 150.573 610.94 150.832C609.646 151.091 608.181 151.22 606.542 151.22C603.524 151.22 601.282 150.66 599.817 149.539C598.351 148.418 597.618 146.435 597.618 143.589V66.2427C598.308 65.9841 599.299 65.7685 600.593 65.596C601.972 65.3373 603.481 65.208 605.12 65.208C608.138 65.208 610.379 65.7685 611.845 66.8894C613.311 68.0104 614.044 69.9936 614.044 72.8392V112.935L639.136 87.9721C642.413 87.9721 645.043 88.7051 647.026 90.1709C649.009 91.6368 650.001 93.4907 650.001 95.7326C650.001 97.7159 649.354 99.4404 648.061 100.906C646.854 102.372 644.914 104.226 642.241 106.468L628.272 118.626L652.976 141.778C652.631 144.796 651.726 147.167 650.26 148.892C648.794 150.53 646.681 151.349 643.922 151.349C641.939 151.349 640.171 150.875 638.619 149.927C637.153 148.978 635.342 147.297 633.187 144.882L614.044 123.67V150.185Z" fill="#1E1E1C"/>
<path d="M673.782 135.57C671.712 131.258 669.255 125.438 666.409 118.109C663.564 110.779 660.718 101.898 657.873 91.4644C658.735 90.4296 659.942 89.5673 661.494 88.8775C663.046 88.1015 664.728 87.7134 666.539 87.7134C668.781 87.7134 670.591 88.2308 671.971 89.2655C673.437 90.3003 674.601 92.1542 675.463 94.8272C679.516 107.848 684.129 121.04 689.303 134.406H689.82C690.941 131.56 692.105 128.327 693.312 124.705C694.606 121.084 695.813 117.29 696.934 113.323C698.141 109.357 699.262 105.347 700.297 101.294C701.331 97.2416 702.237 93.3182 703.013 89.5242C704.048 89.0069 705.126 88.5757 706.246 88.2308C707.454 87.8859 708.704 87.7134 709.997 87.7134C712.239 87.7134 714.179 88.2308 715.818 89.2655C717.456 90.3003 718.275 91.9817 718.275 94.3099C718.275 96.8967 717.715 100.561 716.594 105.304C715.473 109.96 713.964 115.005 712.067 120.437C710.256 125.783 708.187 131.215 705.858 136.734C703.53 142.166 701.202 146.952 698.874 151.091C694.39 159.024 690.294 164.93 686.587 168.811C682.965 172.777 679.387 174.76 675.851 174.76C673.092 174.76 670.85 173.941 669.125 172.303C667.487 170.751 666.452 168.767 666.021 166.353C667.401 165.146 668.867 163.723 670.419 162.085C671.971 160.533 673.523 158.851 675.075 157.041C676.627 155.23 678.093 153.376 679.473 151.479C680.852 149.582 682.06 147.728 683.094 145.917C682.318 145.658 681.542 145.357 680.766 145.012C680.076 144.581 679.343 143.977 678.567 143.201C677.878 142.425 677.102 141.433 676.239 140.226C675.463 139.019 674.644 137.467 673.782 135.57Z" fill="#1E1E1C"/>
<defs>
<linearGradient id="paint0_linear" x1="84.6054" y1="141.61" x2="109.298" y2="186.35" gradientUnits="userSpaceOnUse">
<stop stop-color="#004467"/>
<stop offset="1" stop-color="#0097E6" stop-opacity="0"/>
</linearGradient>
<linearGradient id="paint1_linear" x1="94.4771" y1="85.1091" x2="69.7845" y2="129.85" gradientUnits="userSpaceOnUse">
<stop stop-color="#0070AF"/>
<stop offset="1" stop-color="#0070AF" stop-opacity="0"/>
</linearGradient>
</defs>
</svg>
